<svg id="visual" viewBox="0 0 1440 200" width="1440" height="200" xmlns="http://www.w3.org/2000/svg" xmlns:xlink="http://www.w3.org/1999/xlink" version="1.1"><rect x="0" y="0" width="1440" height="200" fill="#0e101b"></rect><path d="M0 65L63 10L125 30L188 70L250 41L313 95L376 63L438 58L501 92L563 73L626 89L689 11L751 37L814 46L877 15L939 78L1002 45L1064 12L1127 78L1190 68L1252 49L1315 83L1377 66L1440 43L1440 201L1377 201L1315 201L1252 201L1190 201L1127 201L1064 201L1002 201L939 201L877 201L814 201L751 201L689 201L626 201L563 201L501 201L438 201L376 201L313 201L250 201L188 201L125 201L63 201L0 201Z" fill="#ffb199"></path><path d="M0 81L63 64L125 87L188 55L250 92L313 73L376 88L438 87L501 55L563 60L626 96L689 80L751 61L814 45L877 47L939 47L1002 94L1064 97L1127 50L1190 62L1252 69L1315 57L1377 68L1440 76L1440 201L1377 201L1315 201L1252 201L1190 201L1127 201L1064 201L1002 201L939 201L877 201L814 201L751 201L689 201L626 201L563 201L501 201L438 201L376 201L313 201L250 201L188 201L125 201L63 201L0 201Z" fill="#ed8c97"></path><path d="M0 116L63 87L125 129L188 116L250 78L313 106L376 116L438 106L501 87L563 113L626 91L689 98L751 118L814 132L877 102L939 91L1002 113L1064 78L1127 95L1190 132L1252 109L1315 96L1377 137L1440 85L1440 201L1377 201L1315 201L1252 201L1190 201L1127 201L1064 201L1002 201L939 201L877 201L814 201L751 201L689 201L626 201L563 201L501 201L438 201L376 201L313 201L250 201L188 201L125 201L63 201L0 201Z" fill="#cb6f9e"></path><path d="M0 114L63 116L125 153L188 130L250 160L313 136L376 116L438 152L501 109L563 119L626 144L689 113L751 161L814 123L877 109L939 152L1002 115L1064 135L1127 108L1190 159L1252 154L1315 111L1377 128L1440 146L1440 201L1377 201L1315 201L1252 201L1190 201L1127 201L1064 201L1002 201L939 201L877 201L814 201L751 201L689 201L626 201L563 201L501 201L438 201L376 201L313 201L250 201L188 201L125 201L63 201L0 201Z" fill="#965da6"></path><path d="M0 154L63 155L125 147L188 142L250 160L313 167L376 145L438 139L501 151L563 144L626 170L689 173L751 183L814 162L877 178L939 185L1002 155L1064 187L1127 187L1190 156L1252 184L1315 168L1377 175L1440 139L1440 201L1377 201L1315 201L1252 201L1190 201L1127 201L1064 201L1002 201L939 201L877 201L814 201L751 201L689 201L626 201L563 201L501 201L438 201L376 201L313 201L250 201L188 201L125 201L63 201L0 201Z" fill="#4253a7"></path></svg>