<svg id="visual" viewBox="0 0 1440 200" width="1440" height="200" xmlns="http://www.w3.org/2000/svg" xmlns:xlink="http://www.w3.org/1999/xlink" version="1.1"><rect x="0" y="0" width="1440" height="200" fill="#0e101b"></rect><path d="M0 54L63 41L125 92L188 12L250 70L313 45L376 27L438 70L501 80L563 13L626 60L689 70L751 79L814 41L877 41L939 89L1002 73L1064 87L1127 24L1190 25L1252 64L1315 50L1377 13L1440 73L1440 201L1377 201L1315 201L1252 201L1190 201L1127 201L1064 201L1002 201L939 201L877 201L814 201L751 201L689 201L626 201L563 201L501 201L438 201L376 201L313 201L250 201L188 201L125 201L63 201L0 201Z" fill="#1aaeec"></path><path d="M0 66L63 101L125 61L188 58L250 119L313 88L376 98L438 116L501 98L563 57L626 91L689 65L751 55L814 112L877 107L939 75L1002 76L1064 61L1127 102L1190 114L1252 84L1315 109L1377 115L1440 92L1440 201L1377 201L1315 201L1252 201L1190 201L1127 201L1064 201L1002 201L939 201L877 201L814 201L751 201L689 201L626 201L563 201L501 201L438 201L376 201L313 201L250 201L188 201L125 201L63 201L0 201Z" fill="#1798df"></path><path d="M0 117L63 97L125 95L188 113L250 86L313 140L376 96L438 82L501 108L563 84L626 86L689 142L751 110L814 90L877 126L939 126L1002 123L1064 74L1127 103L1190 102L1252 91L1315 107L1377 122L1440 104L1440 201L1377 201L1315 201L1252 201L1190 201L1127 201L1064 201L1002 201L939 201L877 201L814 201L751 201L689 201L626 201L563 201L501 201L438 201L376 201L313 201L250 201L188 201L125 201L63 201L0 201Z" fill="#2681cf"></path><path d="M0 123L63 159L125 140L188 160L250 130L313 147L376 127L438 117L501 163L563 134L626 132L689 129L751 132L814 137L877 125L939 127L1002 125L1064 168L1127 154L1190 126L1252 147L1315 162L1377 137L1440 163L1440 201L1377 201L1315 201L1252 201L1190 201L1127 201L1064 201L1002 201L939 201L877 201L814 201L751 201L689 201L626 201L563 201L501 201L438 201L376 201L313 201L250 201L188 201L125 201L63 201L0 201Z" fill="#366abc"></path><path d="M0 149L63 140L125 156L188 184L250 174L313 181L376 170L438 140L501 151L563 159L626 190L689 170L751 190L814 180L877 189L939 186L1002 163L1064 147L1127 170L1190 162L1252 145L1315 191L1377 182L1440 183L1440 201L1377 201L1315 201L1252 201L1190 201L1127 201L1064 201L1002 201L939 201L877 201L814 201L751 201L689 201L626 201L563 201L501 201L438 201L376 201L313 201L250 201L188 201L125 201L63 201L0 201Z" fill="#4253a7"></path></svg>