<svg id="visual" viewBox="0 0 1440 200" width="1440" height="200" xmlns="http://www.w3.org/2000/svg" xmlns:xlink="http://www.w3.org/1999/xlink" version="1.1"><rect x="0" y="0" width="1440" height="200" fill="#0e101b"></rect><path d="M0 144L63 157L125 106L188 186L250 128L313 153L376 171L438 128L501 118L563 185L626 138L689 128L751 119L814 157L877 157L939 109L1002 125L1064 111L1127 174L1190 173L1252 134L1315 148L1377 185L1440 125L1440 0L1377 0L1315 0L1252 0L1190 0L1127 0L1064 0L1002 0L939 0L877 0L814 0L751 0L689 0L626 0L563 0L501 0L438 0L376 0L313 0L250 0L188 0L125 0L63 0L0 0Z" fill="#1aaeec"></path><path d="M0 132L63 97L125 137L188 140L250 79L313 110L376 100L438 82L501 100L563 141L626 107L689 133L751 143L814 86L877 91L939 123L1002 122L1064 137L1127 96L1190 84L1252 114L1315 89L1377 83L1440 106L1440 0L1377 0L1315 0L1252 0L1190 0L1127 0L1064 0L1002 0L939 0L877 0L814 0L751 0L689 0L626 0L563 0L501 0L438 0L376 0L313 0L250 0L188 0L125 0L63 0L0 0Z" fill="#1798df"></path><path d="M0 81L63 101L125 103L188 85L250 112L313 58L376 102L438 116L501 90L563 114L626 112L689 56L751 88L814 108L877 72L939 72L1002 75L1064 124L1127 95L1190 96L1252 107L1315 91L1377 76L1440 94L1440 0L1377 0L1315 0L1252 0L1190 0L1127 0L1064 0L1002 0L939 0L877 0L814 0L751 0L689 0L626 0L563 0L501 0L438 0L376 0L313 0L250 0L188 0L125 0L63 0L0 0Z" fill="#2681cf"></path><path d="M0 75L63 39L125 58L188 38L250 68L313 51L376 71L438 81L501 35L563 64L626 66L689 69L751 66L814 61L877 73L939 71L1002 73L1064 30L1127 44L1190 72L1252 51L1315 36L1377 61L1440 36L1440 0L1377 0L1315 0L1252 0L1190 0L1127 0L1064 0L1002 0L939 0L877 0L814 0L751 0L689 0L626 0L563 0L501 0L438 0L376 0L313 0L250 0L188 0L125 0L63 0L0 0Z" fill="#366abc"></path><path d="M0 49L63 58L125 42L188 14L250 24L313 17L376 28L438 58L501 47L563 39L626 8L689 28L751 8L814 18L877 9L939 12L1002 35L1064 51L1127 28L1190 36L1252 53L1315 7L1377 16L1440 15L1440 0L1377 0L1315 0L1252 0L1190 0L1127 0L1064 0L1002 0L939 0L877 0L814 0L751 0L689 0L626 0L563 0L501 0L438 0L376 0L313 0L250 0L188 0L125 0L63 0L0 0Z" fill="#4253a7"></path></svg>